<svg version="1" xmlns="http://www.w3.org/2000/svg" width="770.667" height="770.667" viewBox="0 0 578.000000 578.000000"><path d="M324.5 33c-8.1 2.1-13.5 4.1-13.5 5.2 0 1.3 1.5 1.6 4 .5 3.1-1.3 4.4-1.6 12-3.5 5.3-1.3 14.9-1.4 21-.2 3 .6 6 1.2 6.6 1.4 3.2.6 14.3 6.9 17.3 9.8 21.4 20.9 18.8 51.1-7.3 83.2-11.8 14.4-19.7 22.8-39.3 41.9l-5 4.8-3.1-1.8c-1.8-1-3.2-2.1-3.2-2.6 0-.4-.5-.7-1.2-.7-1.9 0-18.9-13.3-25.6-20.1-5.7-5.6-8.7-9.6-14.4-19-.9-1.4-2.6-6.2-3.8-10.7-3.7-13.5-2.2-25.6 5-41.7 1.3-2.7 2.8-5.5 3.4-6.2.6-.7 3.3-4.3 6-8 2.7-3.8 7.8-9.3 11.3-12.3 6.4-5.6 7.4-7 5-7-4 0-22.8 20.8-27.7 30.5-1.4 2.8-2.9 5.3-3.3 5.6-.5.3-.9 1-.9 1.5s-.4 2-1 3.3c-3.1 8.3-5.1 19.4-5.2 28.6-.1 16.2 2.4 26.7 9.6 40.6 5.7 10.9 12 19.2 22.6 29.4l8.2 8.1-10.6 9.9c-13.2 12.4-30.1 29.4-40.2 40.4-4.3 4.5-8.7 9.4-10 10.8-1.3 1.4-6.7 7.8-12 14.2-5.3 6.4-9.9 11.8-10.2 12.1-.3.3-4.4 5.7-9.1 12-9 11.9-18.8 26.6-26.2 39.2-4.1 7-14.7 28.1-14.7 29.3 0 .3-.9 2.5-1.9 4.8-2.8 6.2-7.9 20.9-10.2 29.6-2.3 8.7-2.4 9.1-3.9 18.6-2.1 12.7-2.3 14.9-2.3 28 0 14.8.5 19.7 3.4 34.5 1.5 7.1 1.5 7.2 2.1 9 .3.8 1.6 4.6 2.7 8.5 4.3 13.9 10.8 27.9 20.6 44.2 4.7 7.9 5 8.2 7 6.7 1.1-.8 2.8-1.7 3.8-2.1.9-.3 1.7-.9 1.7-1.3s.8-1 1.8-1.3c.9-.4 5.8-3.5 10.7-6.9 5-3.5 18.7-12.9 30.5-20.8 11.8-8 21.7-14.7 22-15 .3-.3 10.9-7.5 23.5-16 12.7-8.4 27.5-18.5 33-22.3 5.5-3.7 11.5-7.7 13.3-8.9 1.7-1.1 3.2-2.3 3.2-2.8 0-.4-1.2-2.5-2.7-4.6-4.2-6.2-13.8-25.2-16.8-33.4-6.9-19-9.4-33.9-9-54.5.2-8.3.6-16.1.9-17.5.3-1.3.8-4 1.1-6 1.1-7.3 6.1-25.4 8.1-29.2.8-1.5 1.2-2.8 1-2.8-.6 0 2.2-6.8 8-19.5 1.5-3.3 2.8-6.2 2.9-6.5 1.1-4.1 25.6-47.3 27.5-48.5.6-.4 16.3 9.3 22.9 14.2 4.9 3.6 24.3 18.4 26.4 20.2 8.8 7.5 13.1 11.1 19.1 16.5 9.9 8.7 39.7 38.5 48.6 48.6 4.1 4.6 8 9 8.5 9.6 3.4 3.8 10.1 11.9 10.8 13 1.3 2.3 2.7 1.6 9.1-4.5 7.3-7.1 14.7-14.2 33.6-32.1l14.1-13.4-4.3-3.9c-2.4-2.2-7.9-6.7-12.3-10-4.4-3.4-8.4-6.5-9-7-.5-.4-4.1-2.8-8-5.2-3.8-2.5-7.5-4.9-8.2-5.5-.7-.5-1.5-1-1.7-1-.3 0-2.7-1.3-5.3-2.9-14.7-9-50.1-26.6-73.8-36.6-1.6-.7-5.5-2.4-8.5-3.8s-11.1-4.8-18-7.7c-17.2-7-29-12.7-29-14 0-.6 2.4-5.2 5.3-10.3 2.9-5.1 6.1-11 7.2-13.2 1.1-2.2 2.2-4.2 2.5-4.5.9-.9 3.4-6.5 3.2-7.3-.1-.4.3-.7.8-.7.6 0 1-.4 1-1 0-.5 1.3-3.7 2.9-7.2 3.7-7.9 7.9-19.3 8.7-23.6.4-1.8 1.1-3.5 1.5-3.8.5-.3.7-.8.5-1.2-.2-.4.2-4.1.9-8.2 1.7-9.7 1.2-28.7-.9-36.5-5.3-19.2-19.3-37.2-35.1-45.3-11.9-6-26.7-7.5-40-4.2zM134 168c-.7.4-1.9.6-2.6.3-3.4-1.3-45.7 9.5-49.9 12.7-.5.4-2 1.1-3.2 1.4-5.4 1.7-34.7 18.9-38.3 22.6-.3.3-2.7 2.3-5.5 4.5-5.9 4.6-15.6 14.2-20.5 20.3C9 235.9-.2 251.2.7 252c.5.4 4.4 2.2 8.8 4 4.4 1.9 9 4 10.2 4.8 1.2.7 2.6 1.4 3 1.4.4 0 3.6 1.3 7.1 2.9 3.5 1.6 6.5 2.9 6.8 2.9.2 0 3.2 1.3 6.7 2.9 3.4 1.6 10.7 5 16.2 7.4 5.5 2.5 12 5.4 14.5 6.5 12.1 5.4 16.9 7.5 21.1 9.2l4.6 1.9 4.1-7.8c4.7-8.9 7.2-17.9 7.2-26.8 0-6.1-1.4-14.9-3.1-18.8-.4-1.1-2.1-5.9-3.7-10.7-4-11.8-4-23.6-.1-31.8 9.1-19.3 38.2-30.6 71.4-27.8 2.4.2 3.1-.1 3.3-1.8.4-2.4 1.3-2.3-23.9-2.8-10.8-.2-20.2-.1-20.9.4zM490 363.7c-.5 8.7-1 15.1-1.3 16.3-.2.8-.7 3.1-1.1 5-3.9 18.2-14.6 37.3-29 51.5-7.2 7.2-8 7.8-17.4 14-20.6 13.7-45.8 17.6-67.4 10.4-7-2.3-14.7-5.8-20.9-9.5-3-1.8-5.2-2.5-6.4-2-1.8.6-1.7.9 1 3.4 7.5 6.8 27.6 22.2 29 22.2.3 0 2.8 1.5 5.7 3.4 20.8 13.2 52.6 23.6 77.6 25.2 4.2.3 8.2.5 8.7.6 4.4.3 22.7-1.7 29-3.1 20.6-4.7 40.2-15 53.2-28.1 6.5-6.5 17.9-21.1 18.2-23.3 0-.4.8-2.1 1.7-3.8 1.9-3.8 5.9-14.3 6.8-18.1.6-2.6-.1-3.3-11-11-6.3-4.6-12.3-8.8-13.2-9.3-.9-.6-1.9-1.2-2.2-1.5-.5-.5-12-8.8-16.6-12-1.2-.8-4.2-2.9-6.6-4.6-2.3-1.7-8.3-5.9-13.3-9.4-4.9-3.4-9.2-6.5-9.5-6.9-.4-.5-9.4-6.7-13.7-9.4-.7-.4-1.3-.4-1.3 0z"/></svg>