<!DOCTYPE svg PUBLIC "-//W3C//DTD SVG 1.1//EN" "http://www.w3.org/Graphics/SVG/1.1/DTD/svg11.dtd">
<svg version="1.1" id="Layer_1" xmlns="http://www.w3.org/2000/svg" xmlns:xlink="http://www.w3.org/1999/xlink" x="0px" y="0px"
	 width="522.953px" height="236.062px" viewBox="0 0 522.953 236.062" enable-background="new 0 0 522.953 236.062"
	 xml:space="preserve">
<path opacity="0.6" fill="#69C7F0" d="M93.865,146.237H8.096L0,111.576L91.841,2.277h49.589v107.274h22.518v36.686H141.43v34.409
	H93.865V146.237z M93.865,109.805V58.951l-42.252,50.854H93.865z"/>
<path opacity="0.6" fill="#F8AC06" d="M181.4,92.601v-0.506C181.4,41.999,213.279,0,263.627,0c50.349,0,81.721,41.493,81.721,91.588
	v0.506c0,50.095-31.625,92.094-82.227,92.094C212.52,184.188,181.4,142.696,181.4,92.601z M296.012,92.601v-0.506
	c0-28.083-13.409-48.577-32.891-48.577s-32.385,19.735-32.385,48.071v0.506c0,28.337,13.156,48.577,32.891,48.577
	S296.012,120.684,296.012,92.601z"/>
<path opacity="0.6" fill="#6ABE9B" d="M452.87,146.237h-85.769l-8.097-34.662L450.846,2.277h49.59v107.274h22.518v36.686h-22.518
	v34.409H452.87V146.237z M452.87,109.805V58.951l-42.252,50.854H452.87z"/>
<g>
	<path fill="#ECEDED" d="M2.976,201.387h14.569c8.596,0,14.132,4.42,14.132,11.946v0.098c0,8.013-6.168,12.238-14.618,12.238h-4.662
		v9.713H2.976V201.387z M16.866,218.287c3.351,0,5.39-1.749,5.39-4.419v-0.098c0-2.914-2.04-4.468-5.439-4.468h-4.419v8.984H16.866z
		"/>
	<path fill="#ECEDED" d="M44.011,201.145h9.081l14.473,34.237H57.463l-2.477-6.071H41.874l-2.428,6.071h-9.907L44.011,201.145z
		 M52.267,221.978l-3.788-9.664l-3.836,9.664H52.267z"/>
	<path fill="#ECEDED" d="M67.513,218.481v-0.098c0-9.907,7.77-17.678,18.309-17.678c5.973,0,10.198,1.846,13.792,4.954l-5.536,6.653
		c-2.429-2.04-4.856-3.205-8.208-3.205c-4.905,0-8.693,4.128-8.693,9.324v0.098c0,5.487,3.836,9.421,9.227,9.421
		c2.283,0,4.031-0.485,5.439-1.408v-4.128h-6.702v-6.896h15.638v15.298c-3.594,2.963-8.596,5.245-14.764,5.245
		C75.429,236.062,67.513,228.777,67.513,218.481z"/>
	<path fill="#ECEDED" d="M106.021,201.387h27.341v8.013h-18.017v5.148h16.317v7.43h-16.317v5.391h18.26v8.014h-27.584V201.387z"/>
	<path fill="#ECEDED" d="M151.86,201.387h8.79l13.987,17.969v-17.969h9.324v33.995h-8.256l-14.521-18.648v18.648h-9.324V201.387z"/>
	<path fill="#ECEDED" d="M188.814,218.481v-0.098c0-9.761,7.867-17.678,18.357-17.678c10.49,0,18.26,7.82,18.26,17.581v0.097
		c0,9.762-7.868,17.678-18.357,17.678S188.814,228.242,188.814,218.481z M215.816,218.481v-0.098c0-4.904-3.545-9.178-8.742-9.178
		c-5.148,0-8.596,4.176-8.596,9.081v0.097c0,4.905,3.545,9.179,8.693,9.179C212.367,227.562,215.816,223.386,215.816,218.481z"/>
	<path fill="#ECEDED" d="M230.333,201.387h8.79l13.986,17.969v-17.969h9.325v33.995h-8.257l-14.52-18.648v18.648h-9.324V201.387z"/>
	<path fill="#ECEDED" d="M290.207,209.643h-10.198v-8.256h29.818v8.256h-10.198v25.739h-9.422V209.643z"/>
	<path fill="#ECEDED" d="M313.952,201.387h16.074c5.196,0,8.79,1.359,11.072,3.691c1.991,1.942,3.012,4.564,3.012,7.915v0.098
		c0,5.196-2.769,8.645-6.994,10.441l8.11,11.85h-10.878l-6.848-10.296h-4.128v10.296h-9.421V201.387z M329.589,217.704
		c3.205,0,5.051-1.554,5.051-4.031v-0.097c0-2.671-1.942-4.03-5.099-4.03h-6.168v8.158H329.589z"/>
	<path fill="#ECEDED" d="M347.7,218.481v-0.098c0-9.761,7.867-17.678,18.357-17.678s18.261,7.82,18.261,17.581v0.097
		c0,9.762-7.868,17.678-18.357,17.678C355.471,236.062,347.7,228.242,347.7,218.481z M374.702,218.481v-0.098
		c0-4.904-3.546-9.178-8.741-9.178c-5.148,0-8.597,4.176-8.597,9.081v0.097c0,4.905,3.545,9.179,8.693,9.179
		C371.254,227.562,374.702,223.386,374.702,218.481z"/>
	<path fill="#ECEDED" d="M388.781,220.473v-19.086h9.567v18.891c0,4.905,2.477,7.237,6.265,7.237s6.265-2.235,6.265-6.994v-19.134
		h9.567v18.843c0,10.976-6.265,15.783-15.929,15.783S388.781,231.107,388.781,220.473z"/>
	<path fill="#ECEDED" d="M423.308,201.387h10.538l7.722,21.514l7.722-21.514h10.344l-13.792,34.238H437.1L423.308,201.387z"/>
	<path fill="#ECEDED" d="M462.932,201.387h27.342v8.013h-18.017v5.148h16.316v7.43h-16.316v5.391h18.259v8.014h-27.584V201.387z
		 M478.326,191.188l8.79,2.671l-7.188,5.196h-6.848L478.326,191.188z"/>
	<path fill="#ECEDED" d="M495.369,201.387h27.342v8.013h-18.018v5.148h16.317v7.43h-16.317v5.391h18.26v8.014h-27.584V201.387z"/>
</g>
</svg>
