<!DOCTYPE svg PUBLIC "-//W3C//DTD SVG 1.1//EN" "http://www.w3.org/Graphics/SVG/1.1/DTD/svg11.dtd">
<svg version="1.1" id="Layer_1" xmlns="http://www.w3.org/2000/svg" xmlns:xlink="http://www.w3.org/1999/xlink" x="0px" y="0px"
	 width="267.876px" height="252.994px" viewBox="196.062 111.615 267.876 252.994"
	 enable-background="new 196.062 111.615 267.876 252.994" xml:space="preserve">
<g>
	<path fill="#FFFFFF" d="M449.056,230.671c-8.929,0-14.882,5.953-14.882,14.883v89.292H225.826v-89.292
		c0-8.93-5.953-14.883-14.882-14.883s-14.882,5.953-14.882,14.883v104.174c0,8.93,5.953,14.882,14.882,14.882h238.112
		c8.93,0,14.883-5.952,14.883-14.882V245.553C463.938,236.624,457.985,230.671,449.056,230.671z"/>
	<path fill="#FFFFFF" d="M330,111.615c-8.929,0-14.882,5.953-14.882,14.882v95.245l-16.371-16.37
		c-5.953-5.953-14.882-5.953-20.834,0c-5.953,5.953-5.953,14.882,0,20.835l41.669,41.669c2.977,2.977,7.441,4.465,10.417,4.465
		c4.465,0,7.441-1.488,10.418-4.465l41.669-41.669c5.953-5.953,5.953-14.882,0-20.835c-5.952-5.953-14.882-5.953-20.835,0
		l-16.37,17.858v-96.733C344.882,119.056,337.441,111.615,330,111.615z"/>
</g>
</svg>
