<?xml version="1.0" encoding="utf-8"?>
<!-- Generator: Adobe Illustrator 16.0.0, SVG Export Plug-In . SVG Version: 6.00 Build 0)  -->
<!DOCTYPE svg PUBLIC "-//W3C//DTD SVG 1.1//EN" "http://www.w3.org/Graphics/SVG/1.1/DTD/svg11.dtd">
<svg version="1.1" id="Layer_1" xmlns="http://www.w3.org/2000/svg" xmlns:xlink="http://www.w3.org/1999/xlink" x="0px" y="0px"
	 width="63.334px" height="56.294px" viewBox="0 0 63.334 56.294" enable-background="new 0 0 63.334 56.294" xml:space="preserve">
<g>
	<path fill="#7BC4DC" d="M20.024,56.294c0,0-12.959-15.879,10.312-36.503c23.271-20.625,5.02-19.438,4.016-19.255
		s10.951-4.381,9.4,10.221C42.2,25.358,26.229,27,35.812,45.435C22.03,55.291,20.024,56.294,20.024,56.294z"/>
	<path fill="#CC1D59" d="M54.297,35.589c0,0-8.76-10.768-15.33-13.871c-6.571-3.103-14.876-10.951-5.294-19.621
		c0.639,0,0.081,0.479,0.081,0.479s-8.678,7.278,0.504,12.936c9.182,5.658,25.243,11.773,25.882,14.51
		C57.949,32.669,54.297,35.589,54.297,35.589z"/>
	<path fill="#83BFA7" d="M37.873,46.664c8.44,8.123,22.814,8.305,25.461-2.828c-6.069-4.244-9.491-6.708-9.491-6.708
		c-0.548,6.936-7.256,14.693-15.696,9.263C37.979,46.576,37.873,46.664,37.873,46.664z"/>
	<path fill="#EBB630" d="M19.506,16.115c-6.262-0.308-9.137,2.498-8.35,5.681s1.917,5.065-0.308,7.872
		C7.118,27.99,0,24.773,0,24.773c2.156-3.49,8.419-10.438,19.712-9.103C19.506,16.115,19.506,16.115,19.506,16.115z"/>
</g>
</svg>
